<?xml version="1.0" encoding="UTF-8"?>
<svg xmlns="http://www.w3.org/2000/svg" xmlns:xlink="http://www.w3.org/1999/xlink" width="200px" height="200px" viewBox="0 0 200 200" version="1.1">
<g id="surface1">
<path style=" stroke:none;fill-rule:nonzero;fill:rgb(81.176471%,84.705882%,86.27451%);fill-opacity:1;" d="M 41.667969 41.667969 C 27.859375 41.667969 16.667969 52.859375 16.667969 66.667969 L 16.667969 158.332031 C 16.667969 172.140625 27.859375 183.332031 41.667969 183.332031 L 100 183.332031 L 100 41.667969 Z M 158.332031 41.667969 L 100 41.667969 L 100 183.332031 L 158.332031 183.332031 C 172.140625 183.332031 183.332031 172.140625 183.332031 158.332031 L 183.332031 66.667969 C 183.332031 52.859375 172.140625 41.667969 158.332031 41.667969 Z M 158.332031 41.667969 "/>
<path style=" stroke:none;fill-rule:nonzero;fill:rgb(69.019608%,74.509804%,77.254902%);fill-opacity:1;" d="M 158.332031 41.667969 L 100 41.667969 L 100 183.332031 L 158.332031 183.332031 C 172.140625 183.332031 183.332031 172.140625 183.332031 158.332031 L 183.332031 66.667969 C 183.332031 52.859375 172.140625 41.667969 158.332031 41.667969 Z M 158.332031 41.667969 "/>
<path style=" stroke:none;fill-rule:nonzero;fill:rgb(91.372549%,11.764706%,38.823529%);fill-opacity:1;" d="M 41.667969 41.667969 C 27.859375 41.667969 16.667969 52.859375 16.667969 66.667969 L 16.667969 106.5 L 23 108.082031 C 23.652344 108.246094 24.324219 108.332031 25 108.332031 L 100 108.332031 L 100 41.667969 Z M 158.332031 41.667969 L 100 41.667969 L 100 108.332031 L 175 108.332031 C 175.664062 108.414062 176.335938 108.414062 177 108.332031 L 183.332031 106.75 L 183.332031 66.667969 C 183.332031 52.859375 172.140625 41.667969 158.332031 41.667969 Z M 158.332031 41.667969 "/>
<path style=" stroke:none;fill-rule:nonzero;fill:rgb(84.705882%,10.588235%,37.647059%);fill-opacity:1;" d="M 158.332031 41.667969 L 100 41.667969 L 100 108.332031 L 175 108.332031 C 175.664062 108.414062 176.335938 108.414062 177 108.332031 L 183.332031 106.75 L 183.332031 66.667969 C 183.332031 52.859375 172.140625 41.667969 158.332031 41.667969 Z M 158.332031 41.667969 "/>
<path style=" stroke:none;fill-rule:nonzero;fill:rgb(22.352941%,28.627451%,67.058824%);fill-opacity:1;" d="M 50 16.667969 C 45.398438 16.667969 41.667969 20.398438 41.667969 25 L 41.667969 75 C 41.667969 79.601562 45.398438 83.332031 50 83.332031 C 54.601562 83.332031 58.332031 79.601562 58.332031 75 L 58.332031 25 C 58.332031 20.398438 54.601562 16.667969 50 16.667969 Z M 91.667969 25 L 91.667969 75 C 91.667969 79.601562 95.398438 83.332031 100 83.332031 L 100 16.667969 C 95.398438 16.667969 91.667969 20.398438 91.667969 25 Z M 100 16.667969 L 100 83.332031 C 104.601562 83.332031 108.332031 79.601562 108.332031 75 L 108.332031 25 C 108.332031 20.398438 104.601562 16.667969 100 16.667969 Z M 150 16.667969 C 145.398438 16.667969 141.667969 20.398438 141.667969 25 L 141.667969 75 C 141.667969 79.601562 145.398438 83.332031 150 83.332031 C 154.601562 83.332031 158.332031 79.601562 158.332031 75 L 158.332031 25 C 158.332031 20.398438 154.601562 16.667969 150 16.667969 Z M 150 16.667969 "/>
<path style=" stroke:none;fill-rule:nonzero;fill:rgb(22.352941%,28.627451%,67.058824%);fill-opacity:1;" d="M 91.667969 25 L 91.667969 75 C 91.667969 79.601562 95.398438 83.332031 100 83.332031 L 100 16.667969 C 95.398438 16.667969 91.667969 20.398438 91.667969 25 Z M 91.667969 25 "/>
<path style=" stroke:none;fill-rule:nonzero;fill:rgb(10.196078%,13.72549%,49.411765%);fill-opacity:1;" d="M 100 16.667969 L 100 83.332031 C 104.601562 83.332031 108.332031 79.601562 108.332031 75 L 108.332031 25 C 108.332031 20.398438 104.601562 16.667969 100 16.667969 Z M 150 16.667969 C 145.398438 16.667969 141.667969 20.398438 141.667969 25 L 141.667969 75 C 141.667969 79.601562 145.398438 83.332031 150 83.332031 C 154.601562 83.332031 158.332031 79.601562 158.332031 75 L 158.332031 25 C 158.332031 20.398438 154.601562 16.667969 150 16.667969 Z M 150 16.667969 "/>
</g>
</svg>
