<svg xmlns="http://www.w3.org/2000/svg" viewBox="0 0 33.867 33.867" id="linkedin"><path d="M5.692 1.058a3.33 3.33 0 0 0-3.308 3.33 3.33 3.33 0 0 0 3.33 3.33 3.33 3.33 0 0 0 3.329-3.33 3.33 3.33 0 0 0-3.33-3.33 3.33 3.33 0 0 0-.02 0zM3.97 10.38c-.88 0-1.588.708-1.588 1.588v19.262c0 .88.708 1.587 1.588 1.587h3.344c.88 0 1.587-.708 1.587-1.587V11.967c0-.88-.708-1.588-1.587-1.588H3.969zm9.732 0c-.88 0-1.588.708-1.588 1.588v19.262c0 .88.708 1.587 1.588 1.587h3.344c.88 0 1.587-.708 1.587-1.587V20.27c2.077-2.761 6.338-1.946 6.338 1.59v9.368c0 .88.708 1.587 1.588 1.587h3.344c.88 0 1.587-.708 1.587-1.587v-12.84c0-6.363-9.752-8.03-12.857-4.851v-1.571c0-.88-.708-1.588-1.587-1.588H13.7z" paint-order="fill markers stroke" fill="#80bdab" class="color000000 svgShape"></path></svg>