<svg xmlns="http://www.w3.org/2000/svg" xmlns:xlink="http://www.w3.org/1999/xlink" viewBox="0,0,256,256" width="200px" height="200px" fill-rule="nonzero"><g fill="#342b38" fill-rule="nonzero" stroke="none" stroke-width="1" stroke-linecap="butt" stroke-linejoin="miter" stroke-miterlimit="10" stroke-dasharray="" stroke-dashoffset="0" font-family="none" font-weight="none" font-size="none" text-anchor="none" style="mix-blend-mode: normal"><g transform="scale(5.33333,5.33333)"><path d="M19.981,15.84v-5.265l-19.995,10.444v5.901l20.08,10.443v-5.264l-14.858,-8.151z"></path><path d="M23.547,36.281h6.028l17.491,-24.474h-5.986z"></path><path d="M28.429,12.274c-2.79,0 -5.052,2.262 -5.052,5.052c0,2.79 2.262,5.052 5.052,5.052c2.79,0 5.052,-2.262 5.052,-5.052c0,-2.791 -2.262,-5.052 -5.052,-5.052zM28.472,18.981c-0.821,0 -1.486,-0.77 -1.486,-1.719c0,-0.949 0.665,-1.719 1.486,-1.719c0.821,0 1.486,0.77 1.486,1.719c0,0.949 -0.666,1.719 -1.486,1.719z"></path><path d="M41.429,27.274c-2.79,0 -5.052,2.262 -5.052,5.052c0,2.79 2.262,5.052 5.052,5.052c2.79,0 5.052,-2.262 5.052,-5.052c0,-2.791 -2.262,-5.052 -5.052,-5.052zM41.472,33.981c-0.821,0 -1.486,-0.77 -1.486,-1.719c0,-0.949 0.665,-1.719 1.486,-1.719c0.821,0 1.486,0.77 1.486,1.719c0,0.949 -0.666,1.719 -1.486,1.719z"></path></g></g></svg>