<?xml version="1.0" encoding="UTF-8"?>
<svg xmlns="http://www.w3.org/2000/svg" xmlns:xlink="http://www.w3.org/1999/xlink" width="200px" height="200px" viewBox="0 0 200 200" version="1.1">
<g id="surface1">
<path style=" stroke:none;fill-rule:nonzero;fill:rgb(97.647059%,75.686275%,1.960784%);fill-opacity:1;" d="M 90.25 46.582031 C 90.917969 46.332031 91.832031 46.25 92.417969 46.582031 C 92.582031 46.667969 92.75 46.832031 92.667969 47 L 92.667969 47.167969 L 92.75 47.167969 C 92.582031 47.667969 91.75 47.582031 91.332031 47.75 C 90.917969 47.917969 90.582031 48.332031 90.167969 48.332031 C 89.75 48.332031 89.082031 48.167969 89 47.75 C 88.917969 47.167969 89.75 46.582031 90.25 46.582031 Z M 98.75 47.75 C 98.332031 47.582031 97.5 47.667969 97.417969 47.167969 L 97.417969 47 C 97.332031 46.832031 97.5 46.667969 97.582031 46.582031 C 98.304688 46.292969 99.113281 46.292969 99.832031 46.582031 C 100.332031 46.582031 101.167969 47.167969 101.082031 47.75 C 101 48.167969 100.332031 48.25 99.917969 48.25 C 99.5 48.25 99.167969 47.917969 98.75 47.75 Z M 84.082031 59.832031 C 86.582031 61.5 89.832031 63.75 93.917969 63.75 C 98 63.75 102.832031 61.5 105.75 59.832031 C 107.332031 58.75 109.5 57.082031 111.167969 55.917969 C 112.5 54.832031 112.417969 53.75 113.582031 53.75 C 114.667969 53.832031 113.832031 54.832031 112.332031 56.5 C 110.75 57.582031 108.417969 59.25 106.5 60.417969 C 102.832031 62.082031 98.5 64.832031 93.917969 64.832031 C 89.417969 64.832031 85.75 62.582031 83.167969 60.917969 C 81.832031 59.832031 80.832031 58.75 80 58.167969 C 78.667969 57.082031 78.832031 55.417969 79.417969 55.417969 C 80.332031 55.5 80.5 56.5 81.082031 57.082031 C 81.917969 57.582031 82.917969 58.75 84.082031 59.832031 Z M 84.082031 59.832031 "/>
<path style=" stroke:none;fill-rule:nonzero;fill:rgb(0%,0%,0%);fill-opacity:1;" d="M 101.082031 47.75 C 101 48.167969 100.332031 48.25 99.917969 48.25 C 99.5 48.25 99.167969 47.917969 98.75 47.75 C 98.332031 47.582031 97.5 47.667969 97.417969 47.167969 L 97.417969 47 C 97.332031 46.832031 97.5 46.667969 97.582031 46.582031 C 98.304688 46.292969 99.113281 46.292969 99.832031 46.582031 C 100.332031 46.582031 101.167969 47.167969 101.082031 47.75 Z M 101.082031 47.75 "/>
<path style=" stroke:none;fill-rule:nonzero;fill:rgb(0%,0%,0%);fill-opacity:1;" d="M 138.582031 91.5 L 138.582031 99.167969 L 134 99.167969 C 138.160156 106.753906 141.140625 114.929688 142.832031 123.417969 C 144.082031 123.332031 145.582031 123.582031 147.167969 123.917969 C 147.832031 122.167969 148.25 120.417969 148.5 118.667969 C 150.082031 107.082031 142.75 95.75 138.582031 91.5 Z M 138.582031 91.5 L 138.582031 99.167969 L 134 99.167969 C 138.160156 106.753906 141.140625 114.929688 142.832031 123.417969 C 144.082031 123.332031 145.582031 123.582031 147.167969 123.917969 C 147.832031 122.167969 148.25 120.417969 148.5 118.667969 C 150.082031 107.082031 142.75 95.75 138.582031 91.5 Z M 177.332031 157.917969 L 177.332031 157.167969 L 177.25 157.082031 C 175.832031 155.417969 175.167969 152.667969 174.417969 149.417969 C 173.75 146.082031 172.917969 142.832031 170.25 140.667969 C 169.75 140.25 169.25 140.167969 168.667969 139.582031 C 168.191406 139.269531 167.648438 139.066406 167.082031 139 C 169.417969 132.167969 169.667969 125.25 168.5 118.667969 C 167.917969 115.082031 166.917969 111.582031 165.582031 108.25 C 161.082031 96.5 153.25 86.25 147.25 79.25 C 144.167969 75.332031 141 71.417969 138.582031 67.25 C 135.832031 62.5 134 57.417969 134.082031 51.167969 C 134.25 39.582031 135 21.5 126.832031 10.25 C 122.5 4.167969 115.417969 0 104.25 0 C 102.917969 0 101.582031 0.0820312 100.167969 0.167969 C 89.582031 1 83 4.832031 78.917969 10.25 C 69.332031 22.917969 73.832031 43.917969 73.5 52.667969 C 72.832031 61.75 71 68.917969 64.667969 77.832031 C 62.082031 80.832031 59.082031 84.5 56.167969 88.667969 C 50.582031 96.5 45 105.832031 41.75 115.5 C 39.667969 121.75 38.5 128.167969 39.082031 134.332031 L 39.332031 136.25 C 39 136.5 38.667969 136.832031 38.417969 137.332031 C 36.167969 139.582031 34.582031 142.332031 32.832031 144.332031 C 31.082031 146 28.75 146.582031 26.082031 147.667969 C 23.417969 148.832031 20.5 149.917969 18.832031 153.332031 C 18 154.917969 17.667969 156.667969 17.667969 158.332031 C 17.667969 160 17.917969 161.75 18.167969 162.832031 C 18.667969 166.167969 19.167969 168.917969 18.5 170.917969 C 16.417969 176.582031 16.167969 180.5 17.582031 183.332031 C 19.082031 186.082031 22.082031 187.167969 25.5 188.332031 C 32.332031 190 41.582031 189.417969 48.917969 193.332031 C 56.667969 197.167969 64.667969 198.917969 70.917969 197.25 C 75.417969 196.25 79.167969 193.332031 81.167969 189.332031 C 81.582031 189.332031 81.917969 189.332031 82.332031 189.25 C 87 189 92.167969 187.082031 100.167969 186.582031 C 102.417969 186.417969 104.832031 186.667969 107.5 187 C 111.75 187.667969 116.582031 188.582031 121.917969 188.25 C 122.082031 189.332031 122.417969 189.832031 122.832031 191 L 122.917969 191 C 126.167969 197.5 132.25 200.417969 138.75 199.917969 C 145.25 199.417969 152.167969 195.5 157.832031 189.082031 C 163.082031 182.667969 172 180 177.832031 176.5 C 180.75 174.917969 183.167969 172.667969 183.332031 169.417969 C 183.5 166.082031 181.667969 162.667969 177.332031 157.917969 Z M 112.5 38.667969 C 112.167969 37.582031 111.667969 37 111 35.917969 C 110.25 35.332031 109.582031 34.75 108.75 34.75 L 108.582031 34.75 C 107.832031 34.75 107.082031 35 106.417969 35.917969 C 105.582031 36.667969 105 37.582031 104.667969 38.667969 C 104.25 39.75 104 40.832031 103.917969 42 L 103.917969 42.167969 C 103.917969 42.917969 104 43.667969 104.082031 44.417969 C 102.417969 43.832031 100.417969 43.25 99 42.667969 C 98.917969 42.167969 98.832031 41.582031 98.832031 41.082031 L 98.832031 40.917969 C 98.75 38.667969 99.167969 36.5 100.082031 34.5 C 100.75 32.667969 102 31.082031 103.667969 30 C 105.167969 28.917969 106.917969 28.332031 108.667969 28.332031 L 108.832031 28.332031 C 110.582031 28.332031 112.167969 28.917969 113.75 30 C 115.332031 31.167969 116.5 32.75 117.417969 34.5 C 118.332031 36.582031 118.75 38.25 118.832031 40.5 C 118.832031 40.332031 118.917969 40.167969 118.917969 40 L 118.917969 40.832031 C 118.832031 40.832031 118.832031 40.75 118.832031 40.667969 C 118.832031 42.582031 118.332031 44.582031 117.582031 46.417969 C 117.167969 47.417969 116.582031 48.417969 115.75 49.167969 C 115.5 49 115.25 48.917969 115 48.832031 C 114.167969 48.417969 113.332031 48.25 112.582031 47.75 C 112.003906 47.46875 111.386719 47.273438 110.75 47.167969 C 111.167969 46.667969 112 46.082031 112.332031 45.5 C 112.75 44.417969 113 43.332031 113.082031 42.167969 L 113.082031 42 C 113.082031 40.917969 112.917969 39.75 112.5 38.667969 Z M 77.832031 35 C 78.25 33.332031 79.082031 31.832031 80.25 30.5 C 81.332031 29.417969 82.417969 28.832031 83.75 28.832031 L 84 28.832031 C 85.234375 28.851562 86.429688 29.257812 87.417969 30 C 88.667969 31.082031 89.667969 32.417969 90.332031 33.832031 C 91.082031 35.5 91.5 37.167969 91.582031 39.417969 C 91.667969 40 91.667969 40.417969 91.667969 40.832031 C 91.667969 41.167969 91.667969 41.417969 91.582031 41.667969 L 91.582031 42.332031 C 91.371094 42.417969 91.144531 42.472656 90.917969 42.5 C 89.582031 43 88.582031 43.667969 87.582031 44.167969 C 87.667969 43.5 87.667969 42.75 87.582031 42 L 87.582031 41.832031 C 87.5 40.75 87.25 40.167969 86.917969 39.082031 C 86.640625 38.226562 86.152344 37.453125 85.5 36.832031 C 85.0625 36.460938 84.492188 36.28125 83.917969 36.332031 L 83.75 36.332031 C 83.167969 36.332031 82.667969 36.667969 82.25 37.417969 C 81.667969 38.082031 81.332031 38.832031 81.167969 39.667969 C 81 40.582031 80.917969 41.5 81 42.417969 L 81 42.582031 C 81.082031 43.667969 81.332031 44.25 81.667969 45.332031 C 82.082031 46.417969 82.5 47 83.082031 47.582031 C 83.167969 47.667969 83.25 47.75 83.332031 47.75 C 82.75 48.25 82.417969 48.332031 81.917969 48.917969 C 81.574219 49.191406 81.175781 49.390625 80.75 49.5 C 79.917969 48.417969 79.167969 47.332031 78.5 46.082031 C 77.667969 44.332031 77.25 42.5 77.167969 40.582031 C 77 38.667969 77.25 36.75 77.832031 35 Z M 78.75 52.582031 C 80.582031 51.417969 81.917969 50.25 82.832031 49.75 C 83.667969 49.167969 84 48.917969 84.25 48.667969 L 84.332031 48.667969 C 85.75 46.917969 88 44.75 91.332031 43.582031 C 92.5 43.332031 93.832031 43.082031 95.332031 43.082031 C 98.082031 43.082031 101.5 43.582031 105.5 46.417969 C 108 48.082031 109.917969 48.667969 114.417969 50.332031 C 116.582031 51.417969 117.832031 52.5 118.5 53.667969 L 118.5 52.5 C 119.082031 53.75 119.082031 55.167969 118.582031 56.417969 C 117.582031 59.082031 114.25 61.832031 109.667969 63.5 C 107.332031 64.582031 105.417969 66.25 103.082031 67.332031 C 100.75 68.5 98.167969 69.832031 94.582031 69.582031 C 93.304688 69.6875 92.019531 69.488281 90.832031 69 C 89.832031 68.5 88.917969 68 88.082031 67.417969 C 86.417969 66.25 85 64.582031 82.917969 63.5 C 79.5 61.417969 77.667969 59.167969 77.082031 57.582031 C 76.5 55.332031 77.082031 53.667969 78.75 52.582031 Z M 80.082031 183.082031 C 79.582031 189.25 76 192.582031 70.582031 193.832031 C 65.082031 194.917969 57.75 193.832031 50.332031 190 C 42.25 185.5 32.5 186.082031 26.332031 184.917969 C 23.167969 184.417969 21.167969 183.25 20.167969 181.582031 C 19.25 179.917969 19.25 176.582031 21.25 171.332031 C 22.25 168.5 21.5 165 21 162 C 20.582031 158.667969 20.332031 156.082031 21.417969 154.167969 C 22.75 151.332031 24.75 150.832031 27.167969 149.667969 C 29.667969 148.582031 32.582031 148 34.917969 145.832031 L 34.917969 145.75 C 37.082031 143.5 38.667969 140.75 40.582031 138.75 C 42.167969 137.082031 43.75 136 46.167969 136 L 46.25 136 C 46.667969 136 47.082031 136 47.582031 136.082031 C 50.75 136.582031 53.5 138.917969 56.167969 142.332031 L 63.832031 156.25 L 63.917969 156.25 C 65.917969 160.667969 70.25 165.167969 73.917969 169.917969 C 77.582031 174.917969 80.417969 179.332031 80.082031 183 Z M 107.5 177.75 C 99.25 179.667969 90.5 179.082031 82.332031 174.582031 C 81.332031 174.082031 80.332031 173.5 79.417969 172.832031 C 78.5 171.25 77.332031 169.75 76 168.417969 C 75.386719 167.371094 74.597656 166.441406 73.667969 165.667969 C 75.25 165.667969 76.582031 165.417969 77.667969 165.082031 C 78.832031 164.5 79.832031 163.5 80.25 162.332031 C 81.167969 160.082031 80.25 156.5 77.332031 152.582031 C 74.417969 148.75 69.5 144.332031 62.332031 139.917969 C 59.582031 138.167969 57.5 136.332031 55.917969 134.332031 C 54.332031 132.417969 53.25 130.417969 52.582031 128.332031 C 51.25 123.832031 51.417969 119.25 52.5 114.582031 C 53.75 109.082031 56.25 103.75 58.667969 99.167969 C 60.332031 96.25 61.917969 93.667969 63.25 91.582031 C 64.082031 91 63.5 92.582031 60 99.167969 L 59.75 99.667969 C 56.417969 105.917969 50.167969 120.5 58.75 131.832031 C 59.082031 123.582031 60.917969 115.417969 64.167969 107.832031 C 65.25 105.332031 66.667969 102.417969 68.167969 99.167969 C 73.082031 88.75 79.082031 75.25 79.667969 63.917969 C 80.082031 64.25 81.5 65.082031 82.082031 65.582031 C 83.917969 66.75 85.332031 68.417969 87.082031 69.5 C 88.832031 71.167969 91.082031 72.25 94.5 72.25 C 94.832031 72.332031 95.082031 72.332031 95.417969 72.332031 C 98.832031 72.332031 101.582031 71.25 103.832031 70.082031 C 106.25 69 108.167969 67.332031 110 66.75 L 110.082031 66.75 C 114 65.667969 117.082031 63.417969 118.917969 60.917969 C 121.917969 72.75 129 89.917969 133.5 98.25 C 137.925781 106.09375 141.074219 114.585938 142.832031 123.417969 C 144.082031 123.332031 145.582031 123.582031 147.167969 123.917969 C 147.832031 122.167969 148.25 120.417969 148.5 118.667969 C 150.082031 107.082031 142.75 95.75 138.582031 91.5 C 138.332031 91.332031 138.082031 91.082031 137.917969 90.917969 C 136.082031 89.25 136 88.082031 136.917969 88.082031 C 137.5 88.582031 138 89.082031 138.582031 89.667969 C 143.25 94.5 148.667969 102.25 150.75 111.082031 C 151.417969 113.5 151.75 116.082031 151.75 118.667969 C 151.75 120.75 151.5 122.917969 151 125 C 151.5 125.25 152.082031 125.5 152.667969 125.582031 C 161.417969 130 164.582031 133.332031 163.082031 138.332031 L 163.082031 138 L 161.417969 138 C 162.667969 134.082031 159.917969 131.082031 152.417969 127.832031 C 144.75 124.5 138.582031 125 137.5 131.667969 C 137.417969 132 137.417969 132.25 137.332031 132.832031 C 136.75 133 136.167969 133.25 135.582031 133.332031 C 132 135.582031 130 138.917969 128.917969 143.25 C 127.832031 147.667969 127.5 152.832031 127.167969 158.832031 C 127 161.582031 125.75 165.832031 124.5 170.082031 C 119.417969 173.667969 113.667969 176.417969 107.5 177.75 Z M 176.667969 173.5 C 171.417969 176.832031 162 179.417969 156 186.582031 C 150.75 192.75 144.417969 196.082031 138.832031 196.5 C 133.25 196.917969 128.417969 194.832031 125.582031 189 L 125.5 189 C 123.75 185.667969 124.5 180.417969 126 174.917969 C 127.5 169.332031 129.582031 163.667969 129.917969 159.082031 C 130.167969 153.167969 130.5 148 131.5 144 C 132.582031 140.082031 134.167969 137.332031 136.917969 135.75 L 137.332031 135.582031 C 137.582031 140.582031 140.167969 145.917969 144.75 147.082031 C 149.667969 148.167969 156.832031 144.25 159.832031 140.667969 L 161.582031 140.582031 C 164.25 140.5 166.5 140.667969 168.75 142.832031 C 170.5 144.5 171.332031 147.25 172.082031 150.167969 C 172.832031 153.5 173.417969 156.667969 175.5 159 C 179.667969 163.417969 181 166.582031 180.917969 168.5 C 180.75 170.75 179.332031 171.832031 176.667969 173.5 Z M 138.582031 91.5 L 138.582031 99.167969 L 134 99.167969 C 138.160156 106.753906 141.140625 114.929688 142.832031 123.417969 C 144.082031 123.332031 145.582031 123.582031 147.167969 123.917969 C 147.832031 122.167969 148.25 120.417969 148.5 118.667969 C 150.082031 107.082031 142.75 95.75 138.582031 91.5 Z M 138.582031 91.5 "/>
<path style=" stroke:none;fill-rule:nonzero;fill:rgb(97.647059%,75.686275%,1.960784%);fill-opacity:1;" d="M 118.5 52.5 L 118.5 53.667969 C 117.832031 52.5 116.582031 51.417969 114.417969 50.332031 C 109.917969 48.667969 108 48.082031 105.5 46.417969 C 101.5 43.582031 98.082031 43.082031 95.332031 43.082031 C 93.832031 43.082031 92.5 43.332031 91.332031 43.582031 C 88 44.75 85.75 46.917969 84.332031 48.667969 L 84.25 48.667969 C 84 48.917969 83.667969 49.167969 82.832031 49.75 C 81.917969 50.25 80.582031 51.417969 78.75 52.582031 C 77.082031 53.667969 76.5 55.332031 77.082031 57.582031 C 77.667969 59.167969 79.5 61.417969 82.917969 63.5 C 85 64.582031 86.417969 66.25 88.082031 67.417969 C 88.917969 68 89.832031 68.5 90.832031 69 C 92 69.5 93.25 69.667969 94.582031 69.582031 C 98.167969 69.832031 100.75 68.5 103.082031 67.332031 C 105.417969 66.25 107.332031 64.582031 109.667969 63.5 C 114.25 61.832031 117.582031 59.082031 118.582031 56.417969 C 119.082031 55.167969 119.082031 53.75 118.5 52.5 Z M 97.417969 47 C 97.332031 46.832031 97.5 46.667969 97.582031 46.582031 C 98.304688 46.292969 99.113281 46.292969 99.832031 46.582031 C 100.332031 46.582031 101.167969 47.167969 101.082031 47.75 C 101 48.167969 100.332031 48.25 99.917969 48.25 C 99.5 48.25 99.167969 47.917969 98.75 47.75 C 98.332031 47.582031 97.5 47.667969 97.417969 47.167969 Z M 90.25 46.582031 C 90.917969 46.332031 91.832031 46.25 92.417969 46.582031 C 92.582031 46.667969 92.75 46.832031 92.667969 47 L 92.667969 47.167969 L 92.75 47.167969 C 92.582031 47.667969 91.75 47.582031 91.332031 47.75 C 90.917969 47.917969 90.582031 48.332031 90.167969 48.332031 C 89.75 48.332031 89.082031 48.167969 89 47.75 C 88.917969 47.167969 89.75 46.582031 90.25 46.582031 Z M 112.332031 56.5 C 110.75 57.582031 108.417969 59.25 106.5 60.417969 C 102.832031 62.082031 98.5 64.832031 93.917969 64.832031 C 89.417969 64.832031 85.75 62.582031 83.167969 60.917969 C 81.832031 59.832031 80.832031 58.75 80 58.167969 C 78.667969 57.082031 78.832031 55.417969 79.417969 55.417969 C 80.332031 55.5 80.5 56.5 81.082031 57.082031 C 81.917969 57.582031 82.917969 58.75 84.082031 59.832031 C 86.582031 61.5 89.832031 63.75 93.917969 63.75 C 98 63.75 102.832031 61.5 105.75 59.832031 C 107.332031 58.75 109.5 57.082031 111.167969 55.917969 C 112.5 54.832031 112.417969 53.75 113.582031 53.75 C 114.667969 53.832031 113.832031 54.832031 112.332031 56.5 Z M 180.917969 168.5 C 180.75 170.75 179.332031 171.832031 176.667969 173.5 C 171.417969 176.832031 162 179.417969 156 186.582031 C 150.75 192.75 144.417969 196.082031 138.832031 196.5 C 133.25 196.917969 128.417969 194.832031 125.582031 189 L 125.5 189 C 123.75 185.667969 124.5 180.417969 126 174.917969 C 127.5 169.332031 129.582031 163.667969 129.917969 159.082031 C 130.167969 153.167969 130.5 148 131.5 144 C 132.582031 140.082031 134.167969 137.332031 136.917969 135.75 L 137.332031 135.582031 C 137.582031 140.582031 140.167969 145.917969 144.75 147.082031 C 149.667969 148.167969 156.832031 144.25 159.832031 140.667969 L 161.582031 140.582031 C 164.25 140.5 166.5 140.667969 168.75 142.832031 C 170.5 144.5 171.332031 147.25 172.082031 150.167969 C 172.832031 153.5 173.417969 156.667969 175.5 159 C 179.667969 163.417969 181 166.582031 180.917969 168.5 Z M 80.082031 183 L 80.082031 183.082031 C 79.582031 189.25 76 192.582031 70.582031 193.832031 C 65.082031 194.917969 57.75 193.832031 50.332031 190 C 42.25 185.5 32.5 186.082031 26.332031 184.917969 C 23.167969 184.417969 21.167969 183.25 20.167969 181.582031 C 19.25 179.917969 19.25 176.582031 21.25 171.332031 C 22.25 168.5 21.5 165 21 162 C 20.582031 158.667969 20.332031 156.082031 21.417969 154.167969 C 22.75 151.332031 24.75 150.832031 27.167969 149.667969 C 29.667969 148.582031 32.582031 148 34.917969 145.832031 L 34.917969 145.75 C 37.082031 143.5 38.667969 140.75 40.582031 138.75 C 42.167969 137.082031 43.75 136 46.167969 136 L 46.25 136 C 46.667969 136 47.082031 136 47.582031 136.082031 C 50.75 136.582031 53.5 138.917969 56.167969 142.332031 L 63.832031 156.25 L 63.917969 156.25 C 65.917969 160.667969 70.25 165.167969 73.917969 169.917969 C 77.582031 174.917969 80.417969 179.332031 80.082031 183 Z M 80.082031 183 "/>
<path style=" stroke:none;fill-rule:nonzero;fill:rgb(0%,0%,0%);fill-opacity:1;" d="M 92.75 47.167969 C 92.582031 47.667969 91.75 47.582031 91.332031 47.75 C 90.917969 47.917969 90.582031 48.332031 90.167969 48.332031 C 89.75 48.332031 89.082031 48.167969 89 47.75 C 88.917969 47.167969 89.75 46.582031 90.25 46.582031 C 90.917969 46.332031 91.832031 46.25 92.417969 46.582031 C 92.582031 46.667969 92.75 46.832031 92.667969 47 L 92.667969 47.167969 Z M 112.332031 56.5 C 110.75 57.582031 108.417969 59.25 106.5 60.417969 C 102.832031 62.082031 98.5 64.832031 93.917969 64.832031 C 89.417969 64.832031 85.75 62.582031 83.167969 60.917969 C 81.832031 59.832031 80.832031 58.75 80 58.167969 C 78.667969 57.082031 78.832031 55.417969 79.417969 55.417969 C 80.332031 55.5 80.5 56.5 81.082031 57.082031 C 81.917969 57.582031 82.917969 58.75 84.082031 59.832031 C 86.582031 61.5 89.832031 63.75 93.917969 63.75 C 98 63.75 102.832031 61.5 105.75 59.832031 C 107.332031 58.75 109.5 57.082031 111.167969 55.917969 C 112.5 54.832031 112.417969 53.75 113.582031 53.75 C 114.667969 53.832031 113.832031 54.832031 112.332031 56.5 Z M 112.332031 56.5 "/>
</g>
</svg>
