<svg xmlns="http://www.w3.org/2000/svg" xmlns:xlink="http://www.w3.org/1999/xlink" viewBox="0,0,256,256" width="200px" height="200px" fill-rule="nonzero"><defs><linearGradient x1="22.645" y1="10.881" x2="26.757" y2="23.854" gradientUnits="userSpaceOnUse" id="color-1"><stop offset="0" stop-color="#4adddf"></stop><stop offset="0.699" stop-color="#3f5352"></stop><stop offset="0.863" stop-color="#442729"></stop></linearGradient><linearGradient x1="1" y1="27.033" x2="37.775" y2="27.033" gradientUnits="userSpaceOnUse" id="color-2"><stop offset="0" stop-color="#4adddf"></stop><stop offset="0.792" stop-color="#3f5352"></stop><stop offset="1" stop-color="#442729"></stop></linearGradient><linearGradient x1="11" y1="24" x2="47" y2="24" gradientUnits="userSpaceOnUse" id="color-3"><stop offset="0.206" stop-color="#53140f"></stop><stop offset="0.3" stop-color="#84360f"></stop><stop offset="0.413" stop-color="#b85b10"></stop><stop offset="0.511" stop-color="#df7610"></stop><stop offset="0.59" stop-color="#f68710"></stop><stop offset="0.639" stop-color="#ff8d10"></stop><stop offset="0.729" stop-color="#fd8a10"></stop><stop offset="0.8" stop-color="#f58010"></stop><stop offset="0.865" stop-color="#e86f10"></stop><stop offset="0.925" stop-color="#d65811"></stop><stop offset="0.982" stop-color="#c03a11"></stop><stop offset="1" stop-color="#b72f11"></stop></linearGradient></defs><g fill="none" fill-rule="nonzero" stroke="none" stroke-width="1" stroke-linecap="butt" stroke-linejoin="miter" stroke-miterlimit="10" stroke-dasharray="" stroke-dashoffset="0" font-family="none" font-weight="none" font-size="none" text-anchor="none" style="mix-blend-mode: normal"><g transform="scale(5.33333,5.33333)"><path d="M21,27l-7,-6c0,0 1,-1.5 2.5,-3c1.5,-1.5 2.736,-1.852 4.5,-3c3.511,-2.284 6.5,-12 11,-12z" fill="url(#color-1)"></path><path d="M11,33.066l-10,-7.066l13,-5l7.277,5.465l-7.277,5.601z" fill="url(#color-2)"></path><path d="M32,3c5,0 13,27 15,34c0,0 -7.017,-6.63 -11,-6c-3.983,0.63 -5.47,6.548 -9.725,10.756c-2.775,2.744 -5.275,3.244 -5.275,3.244c0,0 -0.206,-8.124 -5,-11c-2.5,-1.5 -5,-1 -5,-1c0,0 6.049,-2.901 9.474,-8.174c3.425,-5.273 8.026,-21.826 11.526,-21.826z" fill="url(#color-3)"></path></g></g></svg>