<?xml version="1.0" encoding="UTF-8"?>
<svg xmlns="http://www.w3.org/2000/svg" xmlns:xlink="http://www.w3.org/1999/xlink" width="200px" height="200px" viewBox="0 0 200 200" version="1.1">
<g id="surface1">
<path style=" stroke:none;fill-rule:nonzero;fill:rgb(100%,100%,100%);fill-opacity:1;" d="M 104.550781 200 L 99.226562 198.183594 C 99.226562 198.183594 99.875 171.042969 90.132812 169.089844 C 83.640625 161.558594 91.175781 -150.390625 114.550781 168.050781 C 114.550781 168.050781 106.5 172.074219 105.066406 178.957031 C 103.515625 185.714844 104.550781 200 104.550781 200 Z M 104.550781 200 "/>
<path style=" stroke:none;fill-rule:nonzero;fill:rgb(65.098039%,63.921569%,52.156863%);fill-opacity:1;" d="M 104.550781 200 L 99.226562 198.183594 C 99.226562 198.183594 99.875 171.042969 90.132812 169.089844 C 83.640625 161.558594 91.175781 -150.390625 114.550781 168.050781 C 114.550781 168.050781 106.5 172.074219 105.066406 178.957031 C 103.515625 185.714844 104.550781 200 104.550781 200 Z M 104.550781 200 "/>
<path style=" stroke:none;fill-rule:nonzero;fill:rgb(100%,100%,100%);fill-opacity:1;" d="M 107.410156 173.765625 C 107.410156 173.765625 154.035156 143.117188 143.125 79.351562 C 132.609375 32.992188 107.800781 17.792969 105.074219 11.949219 C 102.089844 7.792969 99.234375 0.523438 99.234375 0.523438 L 101.183594 129.484375 C 101.175781 129.609375 97.148438 168.957031 107.410156 173.765625 Z M 107.410156 173.765625 "/>
<path style=" stroke:none;fill-rule:nonzero;fill:rgb(28.627451%,61.568627%,29.019608%);fill-opacity:1;" d="M 107.410156 173.765625 C 107.410156 173.765625 154.035156 143.117188 143.125 79.351562 C 132.609375 32.992188 107.800781 17.792969 105.074219 11.949219 C 102.089844 7.792969 99.234375 0.523438 99.234375 0.523438 L 101.183594 129.484375 C 101.175781 129.609375 97.148438 168.957031 107.410156 173.765625 Z M 107.410156 173.765625 "/>
<path style=" stroke:none;fill-rule:nonzero;fill:rgb(100%,100%,100%);fill-opacity:1;" d="M 96.5 175.449219 C 96.5 175.449219 52.734375 145.582031 55.332031 92.984375 C 57.800781 40.382812 88.707031 14.542969 94.683594 9.867188 C 98.582031 5.714844 98.707031 4.160156 98.964844 0 C 101.691406 5.839844 101.175781 87.398438 101.566406 97.007812 C 102.734375 134.023438 99.492188 168.441406 96.5 175.449219 Z M 96.5 175.449219 "/>
<path style=" stroke:none;fill-rule:nonzero;fill:rgb(34.509804%,66.666667%,31.372549%);fill-opacity:1;" d="M 96.5 175.449219 C 96.5 175.449219 52.734375 145.582031 55.332031 92.984375 C 57.800781 40.382812 88.707031 14.542969 94.683594 9.867188 C 98.582031 5.714844 98.707031 4.160156 98.964844 0 C 101.691406 5.839844 101.175781 87.398438 101.566406 97.007812 C 102.734375 134.023438 99.492188 168.441406 96.5 175.449219 Z M 96.5 175.449219 "/>
</g>
</svg>
