<?xml version="1.0" encoding="UTF-8"?>
<svg xmlns="http://www.w3.org/2000/svg" xmlns:xlink="http://www.w3.org/1999/xlink" width="200px" height="200px" viewBox="0 0 200 200" version="1.1">
<g id="surface1">
<path style=" stroke:none;fill-rule:nonzero;fill:rgb(6.27451%,36.862745%,52.54902%);fill-opacity:1;" d="M 54.433594 162.949219 C 53.214844 162.949219 52.132812 162.875 51.214844 162.734375 L 51.214844 166.773438 C 53.101562 167.523438 54.660156 167.898438 55.933594 167.898438 C 60.707031 167.898438 65.109375 164.984375 69.125 159.125 C 74.257812 151.542969 78.410156 139.367188 81.558594 122.632812 L 74.226562 122.632812 C 73.050781 132.375 70.714844 141.941406 67.265625 151.125 C 67.5 149.382812 66.925781 146.324219 65.558594 141.941406 L 59.5 122.632812 L 51.917969 122.632812 L 60.367188 148.457031 C 61.640625 152.332031 62.285156 154.917969 62.285156 156.183594 C 62.285156 158.007812 61.464844 159.660156 59.824219 161.132812 C 58.457031 162.332031 56.667969 162.949219 54.433594 162.949219 Z M 54.433594 162.949219 "/>
<path style=" stroke:none;fill-rule:nonzero;fill:rgb(100%,58.431373%,58.431373%);fill-opacity:1;" d="M 162.351562 110.773438 L 162.351562 156.015625 L 184.265625 156.015625 L 184.265625 150.449219 L 169.726562 150.449219 L 169.726562 110.773438 Z M 162.351562 110.773438 "/>
<path style=" stroke:none;fill-rule:nonzero;fill:rgb(6.27451%,36.862745%,52.54902%);fill-opacity:1;" d="M 8.667969 119.933594 L 8.75 119.933594 L 20.417969 156.015625 L 26.292969 156.015625 L 38.042969 119.933594 L 38.109375 119.933594 C 39.390625 131.921875 40.140625 143.960938 40.359375 156.015625 L 48.109375 156.015625 C 47.632812 140.886719 46.441406 125.792969 44.542969 110.773438 L 35.417969 110.773438 L 24.191406 144.023438 L 24.125 144.023438 L 13 110.773438 L 3.417969 110.773438 C 1.527344 125.789062 0.386719 140.890625 0 156.015625 L 7.042969 156.015625 C 7.265625 142.785156 7.808594 130.757812 8.667969 119.933594 Z M 8.667969 119.933594 "/>
<path style=" stroke:none;fill-rule:nonzero;fill:rgb(100%,58.431373%,58.431373%);fill-opacity:1;" d="M 155.660156 132.550781 C 155.660156 117.582031 149.675781 110.082031 137.699219 110.082031 C 131.832031 110.082031 127.25 111.984375 123.949219 115.785156 C 120.367188 119.941406 118.566406 126.058594 118.566406 134.148438 C 118.566406 142.101562 120.148438 147.941406 123.351562 151.660156 C 126.265625 155.015625 130.660156 156.691406 136.542969 156.691406 C 138.742188 156.691406 140.757812 156.425781 142.582031 155.890625 L 153.625 162.207031 L 156.625 157.125 L 156.601562 157.125 L 148.132812 153.035156 C 148.882812 152.410156 149.609375 151.742188 150.257812 150.992188 C 153.867188 146.839844 155.660156 140.691406 155.660156 132.550781 Z M 137.300781 151.089844 C 133.589844 151.089844 130.882812 149.726562 129.148438 147 L 129.167969 146.957031 C 127.292969 144.015625 126.359375 139.265625 126.359375 132.757812 C 126.359375 121.359375 129.890625 115.660156 136.941406 115.660156 C 140.632812 115.660156 143.359375 117.023438 145.082031 119.75 C 146.949219 122.707031 147.882812 127.410156 147.882812 133.851562 C 147.882812 145.332031 144.351562 151.089844 137.300781 151.089844 Z M 110 133.949219 C 110 133.949219 103.382812 130.226562 100.109375 128.464844 C 96.507812 126.5 94.558594 124.191406 94.558594 121.515625 C 94.570312 119.847656 95.328125 118.273438 96.625 117.226562 C 97.890625 116.089844 99.714844 115.542969 102.074219 115.542969 C 104.984375 115.542969 107.941406 116.175781 110.941406 117.425781 L 112.714844 113.535156 C 109.238281 111.304688 105.183594 110.140625 101.050781 110.183594 C 96.882812 110.183594 93.507812 111.300781 90.882812 113.574219 C 88.273438 115.824219 86.964844 118.765625 86.964844 122.449219 C 86.964844 126.875 88.714844 129.566406 92.234375 132.082031 C 92.234375 132.082031 98.691406 135.714844 101.925781 137.457031 C 105.410156 139.382812 107.324219 141.675781 107.324219 144.375 C 107.351562 146.359375 106.421875 148.234375 104.824219 149.410156 C 103.242188 150.609375 101.066406 151.207031 98.300781 151.207031 C 95.324219 151.207031 92.035156 150.324219 88.382812 148.523438 L 86.410156 152.417969 C 90.648438 155.226562 94.992188 156.632812 99.515625 156.632812 C 104.359375 156.632812 108.183594 155.410156 111.050781 152.949219 C 113.917969 150.5 115.351562 147.339844 115.351562 143.492188 L 115.398438 143.515625 C 115.398438 139.109375 113.609375 136.449219 110 133.949219 Z M 110 133.949219 "/>
<path style=" stroke:none;fill-rule:nonzero;fill:rgb(6.27451%,36.862745%,52.54902%);fill-opacity:1;" d="M 136.707031 48.066406 C 135.75 48.066406 135.101562 48.183594 134.425781 48.332031 L 134.425781 48.441406 L 134.542969 48.441406 C 134.992188 49.292969 135.757812 49.917969 136.324219 50.675781 C 136.773438 51.550781 137.160156 52.425781 137.609375 53.292969 L 137.726562 53.167969 C 138.507812 52.625 138.890625 51.757812 138.890625 50.441406 C 138.558594 50.058594 138.507812 49.675781 138.226562 49.300781 C 137.890625 48.75 137.175781 48.484375 136.726562 48.050781 Z M 136.707031 48.066406 "/>
<path style=" stroke:none;fill-rule:nonzero;fill:rgb(6.27451%,36.862745%,52.54902%);fill-opacity:1;" d="M 197.457031 110 C 195.816406 107.878906 193.863281 106.015625 191.667969 104.476562 C 189.882812 103.285156 185.984375 101.609375 185.25 99.609375 L 185.140625 99.492188 C 186.359375 99.382812 187.808594 98.949219 188.976562 98.625 C 190.867188 98.132812 192.601562 98.242188 194.558594 97.757812 C 195.441406 97.542969 196.332031 97.265625 197.226562 96.992188 L 197.226562 96.5 C 196.226562 95.515625 195.476562 94.183594 194.441406 93.265625 C 191.554688 90.789062 188.476562 88.539062 185.242188 86.535156 C 183.492188 85.433594 181.273438 84.734375 179.433594 83.800781 C 178.765625 83.476562 177.648438 83.308594 177.265625 82.757812 C 176.265625 81.566406 175.683594 79.976562 174.976562 78.550781 C 173.375 75.542969 171.808594 72.207031 170.417969 69.035156 C 169.417969 66.890625 168.808594 64.757812 167.582031 62.792969 C 161.832031 53.492188 155.609375 47.851562 146.035156 42.339844 C 143.976562 41.199219 141.507812 40.707031 138.898438 40.101562 C 137.507812 40.035156 136.117188 39.933594 134.734375 39.875 C 133.816406 39.492188 132.933594 38.449219 132.148438 37.949219 C 128.984375 35.984375 120.785156 31.734375 118.449219 37.359375 C 116.949219 40.910156 120.675781 44.410156 121.964844 46.207031 C 122.925781 47.457031 124.132812 48.890625 124.800781 50.300781 C 125.191406 51.25 125.300781 52.226562 125.691406 53.214844 C 126.574219 55.625 127.417969 58.300781 128.582031 60.558594 C 129.191406 61.699219 129.859375 62.910156 130.640625 63.933594 C 131.089844 64.535156 131.859375 64.808594 132.035156 65.792969 C 131.25 66.910156 131.199219 68.523438 130.75 69.882812 C 128.75 76.074219 129.535156 83.734375 132.367188 88.292969 C 133.257812 89.648438 135.382812 92.660156 138.226562 91.507812 C 140.726562 90.523438 140.175781 87.417969 140.890625 84.675781 C 141.058594 84.015625 140.949219 83.582031 141.292969 83.140625 L 141.292969 83.265625 C 142.074219 84.808594 142.859375 86.265625 143.574219 87.808594 C 145.292969 90.492188 148.292969 93.273438 150.800781 95.132812 C 152.132812 96.117188 153.191406 97.816406 154.859375 98.425781 L 154.859375 98.257812 L 154.734375 98.257812 C 154.375 97.785156 153.898438 97.558594 153.449219 97.167969 C 152.394531 96.152344 151.417969 95.058594 150.535156 93.890625 C 148.1875 90.746094 146.105469 87.414062 144.308594 83.925781 C 143.390625 82.207031 142.625 80.359375 141.890625 78.667969 C 141.558594 78.015625 141.558594 77.035156 141 76.699219 C 140.167969 77.890625 138.941406 78.933594 138.332031 80.410156 C 137.273438 82.765625 137.167969 85.660156 136.765625 88.675781 C 136.542969 88.734375 136.648438 88.675781 136.542969 88.792969 C 134.757812 88.367188 134.148438 86.550781 133.484375 85.023438 C 131.816406 81.140625 131.542969 74.898438 132.984375 70.417969 C 133.375 69.273438 135.042969 65.660156 134.375 64.558594 C 134.023438 63.515625 132.925781 62.925781 132.316406 62.082031 C 131.535156 60.988281 130.867188 59.820312 130.316406 58.589844 C 128.984375 55.535156 128.316406 52.140625 126.867188 49.082031 C 126.199219 47.667969 125.035156 46.183594 124.082031 44.882812 C 123.023438 43.410156 121.859375 42.375 121.015625 40.625 C 120.742188 40.023438 120.351562 39.035156 120.792969 38.382812 C 120.910156 37.941406 121.140625 37.765625 121.574219 37.648438 C 122.308594 37.058594 124.367188 37.832031 125.089844 38.160156 C 127.148438 38.976562 128.882812 39.742188 130.609375 40.890625 C 131.390625 41.433594 132.234375 42.464844 133.234375 42.742188 L 134.398438 42.742188 C 136.183594 43.125 138.191406 42.859375 139.859375 43.339844 C 142.816406 44.273438 145.484375 45.632812 147.875 47.109375 C 155.214844 51.699219 161.210938 58.152344 165.25 65.808594 C 165.917969 67.066406 166.207031 68.226562 166.816406 69.535156 C 167.984375 72.234375 169.425781 74.957031 170.609375 77.566406 C 171.773438 80.140625 172.898438 82.773438 174.574219 84.910156 C 175.410156 86.050781 178.757812 86.648438 180.257812 87.25 C 181.367188 87.742188 183.089844 88.191406 184.089844 88.792969 C 186.007812 89.933594 187.875 91.25 189.675781 92.507812 C 190.589844 93.132812 193.367188 94.5 193.535156 95.601562 C 189.074219 95.484375 185.617188 95.925781 182.726562 97.140625 C 181.890625 97.464844 180.558594 97.464844 180.441406 98.507812 C 180.898438 98.941406 180.964844 99.648438 181.359375 100.257812 C 182.023438 101.351562 183.175781 102.816406 184.242188 103.589844 C 185.410156 104.492188 186.574219 105.359375 187.800781 106.125 C 189.964844 107.433594 192.425781 108.207031 194.550781 109.523438 C 195.757812 110.292969 196.992188 111.265625 198.214844 112.082031 C 198.824219 112.492188 199.214844 113.234375 200 113.492188 L 200 113.332031 C 199.617188 112.839844 199.5 112.132812 199.125 111.582031 C 198.566406 111.035156 198.007812 110.542969 197.457031 110 Z M 197.457031 110 "/>
</g>
</svg>
